<svg width="52.500000" height="60.000000" viewBox="0 0 52.5 60" fill="none" xmlns="http://www.w3.org/2000/svg" xmlns:xlink="http://www.w3.org/1999/xlink" class="h-9 md:h-auto w-9 md:w-auto"><desc>Created with Pixso.</desc><defs><linearGradient x1="0.000012" y1="30.000034" x2="52.500027" y2="30.000034" id="paint_linear_1_1602_0" gradientUnits="userSpaceOnUse"><stop stop-color="#00F2FE"></stop><stop offset="0.021000" stop-color="#03EFFE"></stop><stop offset="0.293000" stop-color="#24D2FE"></stop><stop offset="0.554000" stop-color="#3CBDFE"></stop><stop offset="0.796000" stop-color="#4AB0FE"></stop><stop offset="1.000000" stop-color="#4FACFE"></stop></linearGradient></defs><path id="Vector" d="M26.25 60C22.68 60 19.2 59.16 15.89 57.5C12.8 55.96 10.01 53.78 7.58 51.03C2.76 45.55 0 38.4 0 31.4L0 12.89C0 11.96 0.54 11.12 1.39 10.74L25.18 0.2C25.78 -0.07 26.47 -0.07 27.07 0.19L51.09 10.74C51.95 11.11 52.5 11.96 52.5 12.89L52.5 31.4C52.5 36.56 51.03 41.76 48.25 46.43C47.59 47.54 46.15 47.91 45.04 47.24C43.93 46.58 43.56 45.14 44.22 44.03C46.57 40.08 47.81 35.72 47.81 31.4L47.81 14.42L26.13 4.9L4.68 14.41L4.68 31.4C4.68 43.91 14.96 55.31 26.25 55.31C30.23 55.31 34.13 54 37.52 51.54C38.57 50.78 40.03 51.01 40.8 52.05C41.56 53.1 41.33 54.57 40.28 55.33C36.08 58.38 31.23 60 26.25 60ZM23.09 41.36C24.33 41.31 25.47 40.77 26.3 39.84C26.33 39.81 26.36 39.78 26.39 39.75L41.08 21.38C41.89 20.37 41.73 18.9 40.72 18.09C39.71 17.28 38.23 17.44 37.42 18.45L22.89 36.61L14.74 28.77C13.81 27.88 12.33 27.91 11.43 28.84C10.53 29.77 10.56 31.26 11.5 32.15L19.76 40.1C19.76 40.1 19.76 40.1 19.77 40.11C20.62 40.92 21.73 41.36 22.9 41.36C22.96 41.36 23.03 41.36 23.09 41.36Z" fill="url(#paint_linear_1_1602_0)" fill-opacity="1.000000" fill-rule="nonzero"></path></svg>