<svg width="60.000000" height="60.000000" viewBox="0 0 60 60" fill="none" xmlns="http://www.w3.org/2000/svg" xmlns:xlink="http://www.w3.org/1999/xlink" class="h-9 md:h-auto w-9 md:w-auto"><desc>Created with Pixso.</desc><defs><linearGradient x1="0.000000" y1="30.000000" x2="60.000000" y2="30.000000" id="paint_linear_1_1620_0" gradientUnits="userSpaceOnUse"><stop stop-color="#00F2FE"></stop><stop offset="0.020800" stop-color="#03EFFE"></stop><stop offset="0.293100" stop-color="#24D2FE"></stop><stop offset="0.553800" stop-color="#3CBDFE"></stop><stop offset="0.795600" stop-color="#4AB0FE"></stop><stop offset="1.000000" stop-color="#4FACFE"></stop></linearGradient></defs><path id="Vector" d="M57.65 33.09C58.95 33.09 60 32.04 60 30.75L60 25.93C60 21.75 56.59 18.35 52.41 18.35L26.91 18.35C26.32 18.35 25.74 18.42 25.19 18.55L25.19 7.22C25.19 3.24 21.95 0 17.96 0L7.22 0C3.24 0 0 3.24 0 7.22L0 27.37C0 31.36 3.24 34.6 7.22 34.6L13.04 34.6C12.91 35.25 12.84 35.92 12.84 36.61C12.84 39.6 14.11 42.31 16.15 44.23C11.34 46.8 8.07 51.85 8.07 57.65C8.07 58.95 9.12 60 10.42 60L51.8 60C53.09 60 54.14 58.95 54.14 57.65C54.14 56.36 53.09 55.31 51.8 55.31L48.88 55.31L48.88 51.64L52.41 51.64C56.59 51.64 60 48.23 60 44.05L60 42.47C60 41.17 58.95 40.12 57.65 40.12C56.36 40.12 55.31 41.17 55.31 42.47L55.31 44.05C55.31 45.65 54.01 46.95 52.41 46.95L34.28 46.95C33.21 45.87 31.98 44.95 30.63 44.23C32.66 42.31 33.93 39.6 33.93 36.61C33.93 31.03 29.54 26.45 24.02 26.13L24.02 25.93C24.02 24.34 25.32 23.04 26.91 23.04L52.41 23.04C54.01 23.04 55.31 24.34 55.31 25.93L55.31 30.75C55.31 32.04 56.36 33.09 57.65 33.09ZM7.22 4.68L17.96 4.68C19.36 4.68 20.5 5.82 20.5 7.22L20.5 20.2L4.68 20.2L4.68 7.22C4.68 5.82 5.82 4.68 7.22 4.68ZM15.19 29.91L7.22 29.91C5.82 29.91 4.68 28.77 4.68 27.37L4.68 24.89L19.4 24.89C19.35 25.23 19.33 25.58 19.33 25.93L19.33 26.92C17.74 27.58 16.35 28.62 15.27 29.91C15.24 29.91 15.22 29.91 15.19 29.91ZM44.19 51.64L44.19 55.31L38.52 55.31C38.32 54.02 37.96 52.79 37.46 51.64L44.19 51.64ZM33.75 55.31L13.02 55.31C14.1 50.62 18.33 47.11 23.38 47.1L23.39 47.1C23.39 47.1 23.4 47.1 23.4 47.1C28.44 47.11 32.68 50.62 33.75 55.31ZM29.25 36.61C29.25 39.81 26.62 42.41 23.39 42.41C23.39 42.41 23.39 42.41 23.39 42.41C23.39 42.41 23.39 42.41 23.38 42.41C20.16 42.41 17.53 39.81 17.53 36.61C17.53 33.4 20.16 30.8 23.39 30.8C26.62 30.8 29.25 33.4 29.25 36.61Z" fill="url(#paint_linear_1_1620_0)" fill-opacity="1.000000" fill-rule="nonzero"></path></svg>