<svg width="58.216797" height="60.000000" viewBox="0 0 58.2168 60" fill="none" xmlns="http://www.w3.org/2000/svg" xmlns:xlink="http://www.w3.org/1999/xlink" class="h-9 md:h-auto w-9 md:w-auto"><desc>Created with Pixso.</desc><defs><linearGradient x1="0.000000" y1="29.999992" x2="58.216637" y2="29.999992" id="paint_linear_1_1630_0" gradientUnits="userSpaceOnUse"><stop stop-color="#00F2FE"></stop><stop offset="0.020800" stop-color="#03EFFE"></stop><stop offset="0.293100" stop-color="#24D2FE"></stop><stop offset="0.553800" stop-color="#3CBDFE"></stop><stop offset="0.795600" stop-color="#4AB0FE"></stop><stop offset="1.000000" stop-color="#4FACFE"></stop></linearGradient></defs><path id="Vector" d="M19.51 42.29C20.43 41.94 21.49 42.22 22.13 42.96C22.77 43.72 22.85 44.83 22.35 45.68C21.85 46.51 20.87 46.95 19.92 46.78C18.98 46.62 18.23 45.87 18.04 44.94C17.82 43.83 18.46 42.68 19.51 42.29ZM53.52 43.59L53.52 43.05C53.52 34.39 46.48 27.34 37.81 27.34L37.76 27.34C35.32 27.34 32.94 27.91 30.81 28.96L32.27 28.96C36.91 28.96 40.68 32.73 40.68 37.37L40.68 55.31L53.52 55.31C53.52 54.01 54.57 52.96 55.87 52.96C57.16 52.96 58.21 54.01 58.21 55.31L58.21 57.65C58.21 58.95 57.16 60 55.87 60L2.34 60C1.04 60 0 58.95 0 57.65L0 37.37C0 32.73 3.77 28.96 8.4 28.96L23 28.96C24.83 27.06 26.99 25.54 29.35 24.47C26.1 21.97 24.01 18.05 24.01 13.67C24.01 6.13 30.19 0 37.78 0C45.38 0 51.56 6.13 51.56 13.67C51.56 18.05 49.47 21.96 46.22 24.47C53.29 27.68 58.21 34.8 58.21 43.05L58.21 43.59C58.21 44.88 57.16 45.93 55.87 45.93C54.57 45.93 53.52 44.88 53.52 43.59ZM32.27 33.65L8.4 33.65C6.35 33.65 4.68 35.32 4.68 37.37L4.68 55.31L36 55.31L36 37.37C36 35.32 34.33 33.65 32.27 33.65ZM28.69 13.67C28.69 18.62 32.77 22.65 37.78 22.65C42.8 22.65 46.87 18.62 46.87 13.67C46.87 8.71 42.8 4.68 37.78 4.68C32.77 4.68 28.69 8.71 28.69 13.67Z" fill="url(#paint_linear_1_1630_0)" fill-opacity="1.000000" fill-rule="nonzero"></path></svg>