<svg width="54.662109" height="60.000000" viewBox="0 0 54.6621 60" fill="none" xmlns="http://www.w3.org/2000/svg" xmlns:xlink="http://www.w3.org/1999/xlink" class="h-9 md:h-auto w-9 md:w-auto"><desc>Created with Pixso.</desc><defs><linearGradient x1="0.000000" y1="30.000000" x2="54.661873" y2="30.000000" id="paint_linear_1_1648_0" gradientUnits="userSpaceOnUse"><stop stop-color="#00F2FE"></stop><stop offset="0.020800" stop-color="#03EFFE"></stop><stop offset="0.293100" stop-color="#24D2FE"></stop><stop offset="0.553800" stop-color="#3CBDFE"></stop><stop offset="0.795600" stop-color="#4AB0FE"></stop><stop offset="1.000000" stop-color="#4FACFE"></stop></linearGradient></defs><path id="Vector" d="M52.31 31.39C53.61 31.39 54.66 30.34 54.66 29.04L54.66 15.43C54.66 10.8 50.89 7.03 46.25 7.03L44.93 7.03L44.93 2.34C44.93 1.04 43.88 0 42.58 0L12.07 0C10.77 0 9.72 1.04 9.72 2.34L9.72 7.03L8.4 7.03C3.77 7.03 0 10.8 0 15.43L0 42.04C0 46.67 3.77 50.44 8.4 50.44L17.66 50.44L17.66 55.31L11.65 55.31C10.36 55.31 9.31 56.36 9.31 57.65C9.31 58.95 10.36 60 11.65 60L43 60C44.29 60 45.34 58.95 45.34 57.65C45.34 56.36 44.29 55.31 43 55.31L37 55.31L37 50.44L46.25 50.44C50.89 50.44 54.66 46.67 54.66 42.04L54.66 40.76C54.66 39.47 53.61 38.42 52.31 38.42C51.02 38.42 49.97 39.47 49.97 40.76L49.97 42.04C49.97 44.09 48.3 45.75 46.25 45.75L8.4 45.75C6.35 45.75 4.68 44.09 4.68 42.04L4.68 15.43C4.68 13.38 6.35 11.71 8.4 11.71L9.72 11.71L9.72 38.3C9.72 39.59 10.77 40.64 12.07 40.64L42.58 40.64C43.88 40.64 44.93 39.59 44.93 38.3L44.93 11.71L46.25 11.71C48.3 11.71 49.97 13.38 49.97 15.43L49.97 29.04C49.97 30.34 51.02 31.39 52.31 31.39ZM32.31 50.44L32.31 55.31L22.34 55.31L22.34 50.44L32.31 50.44ZM40.24 35.95L14.41 35.95L14.41 4.68L40.24 4.68L40.24 35.95ZM19.05 11.42C19.05 10.12 20.1 9.07 21.39 9.07L33.26 9.07C34.55 9.07 35.6 10.12 35.6 11.42C35.6 12.71 34.55 13.76 33.26 13.76L21.39 13.76C20.1 13.76 19.05 12.71 19.05 11.42ZM21.39 31.26L33.26 31.26C34.55 31.26 35.6 30.21 35.6 28.92L35.6 20.32C35.6 19.02 34.55 17.97 33.26 17.97L21.39 17.97C20.1 17.97 19.05 19.02 19.05 20.32L19.05 28.92C19.05 30.21 20.1 31.26 21.39 31.26ZM23.74 22.66L30.91 22.66L30.91 26.58L23.74 26.58L23.74 22.66Z" fill="url(#paint_linear_1_1648_0)" fill-opacity="1.000000" fill-rule="nonzero"></path></svg>