<svg width="50.710938" height="60.000244" viewBox="0 0 50.7109 60.0002" fill="none" xmlns="http://www.w3.org/2000/svg" xmlns:xlink="http://www.w3.org/1999/xlink" class="h-9 md:h-auto w-9 md:w-auto"><desc>Created with Pixso.</desc><defs><linearGradient x1="0.000000" y1="30.000092" x2="50.711044" y2="30.000092" id="paint_linear_1_1611_0" gradientUnits="userSpaceOnUse"><stop stop-color="#00F2FE"></stop><stop offset="0.020800" stop-color="#03EFFE"></stop><stop offset="0.293100" stop-color="#24D2FE"></stop><stop offset="0.553800" stop-color="#3CBDFE"></stop><stop offset="0.795600" stop-color="#4AB0FE"></stop><stop offset="1.000000" stop-color="#4FACFE"></stop></linearGradient></defs><path id="Vector" d="M25.35 11.02C20.7 11.02 16.92 14.8 16.92 19.45L16.92 22.16C14.42 23.21 12.67 25.68 12.67 28.55L12.67 39.49C12.67 43.32 15.78 46.42 19.6 46.42L31.1 46.42C34.93 46.42 38.04 43.32 38.04 39.49L38.04 28.55C38.04 25.68 36.28 23.21 33.78 22.16L33.78 19.45C33.78 14.8 30 11.02 25.35 11.02ZM21.61 19.45C21.61 17.38 23.29 15.7 25.35 15.7C27.42 15.7 29.1 17.38 29.1 19.45L29.1 21.62L21.61 21.62L21.61 19.45ZM33.35 39.49C33.35 40.73 32.34 41.74 31.1 41.74L19.6 41.74C18.36 41.74 17.35 40.73 17.35 39.49L17.35 28.55C17.35 27.31 18.36 26.31 19.6 26.31L31.1 26.31C32.34 26.31 33.35 27.31 33.35 28.55L33.35 39.49ZM26.21 36.2C25.27 36.57 24.18 36.29 23.54 35.51C22.93 34.77 22.84 33.72 23.3 32.88C23.78 32.02 24.79 31.54 25.76 31.72C26.71 31.89 27.46 32.63 27.65 33.56C27.87 34.66 27.25 35.8 26.21 36.2ZM46.02 27.56L46.02 17.57C46.02 17.21 45.72 15.82 41.96 13.08C39.15 11.04 35.45 9 32.19 7.21C31.3 6.72 30.46 6.25 29.66 5.8C27 4.31 23.7 4.31 21.04 5.8C20.7 5.99 20.35 6.19 19.99 6.39C16.69 8.25 12.57 10.55 9.4 12.81C4.74 16.14 4.68 17.52 4.68 17.57L4.68 40.5C4.68 43.62 6.58 46.52 9.64 48.09L22.39 54.6C24.25 55.54 26.46 55.54 28.31 54.6L41.06 48.09C44.12 46.52 46.02 43.62 46.02 40.5L46.02 39.28C46.02 37.99 47.07 36.94 48.36 36.94C49.66 36.94 50.71 37.99 50.71 39.28L50.71 40.5C50.71 45.39 47.83 49.89 43.19 52.26L30.44 58.77C28.85 59.59 27.1 60 25.35 60C23.6 60 21.86 59.59 20.26 58.77L7.51 52.26C2.87 49.89 0 45.39 0 40.5L0 17.57C0 12.63 7.67 7.93 17.7 2.3C18.05 2.1 18.4 1.91 18.74 1.72C22.82 -0.58 27.88 -0.58 31.96 1.72C32.74 2.16 33.58 2.62 34.46 3.1C37.84 4.96 41.67 7.07 44.72 9.29C48.8 12.26 50.71 14.9 50.71 17.57L50.71 27.56C50.71 28.85 49.66 29.9 48.36 29.9C47.07 29.9 46.02 28.85 46.02 27.56Z" fill="url(#paint_linear_1_1611_0)" fill-opacity="1.000000" fill-rule="nonzero"></path></svg>