<svg width="52.227539" height="60.000000" viewBox="0 0 52.2275 60" fill="none" xmlns="http://www.w3.org/2000/svg" xmlns:xlink="http://www.w3.org/1999/xlink" class="h-9 md:h-auto w-9 md:w-auto"><desc>Created with Pixso.</desc><defs><linearGradient x1="-0.000118" y1="30.000000" x2="52.227306" y2="30.000000" id="paint_linear_1_1639_0" gradientUnits="userSpaceOnUse"><stop stop-color="#00F2FE"></stop><stop offset="0.020800" stop-color="#03EFFE"></stop><stop offset="0.293100" stop-color="#24D2FE"></stop><stop offset="0.553800" stop-color="#3CBDFE"></stop><stop offset="0.795600" stop-color="#4AB0FE"></stop><stop offset="1.000000" stop-color="#4FACFE"></stop></linearGradient></defs><path id="Vector" d="M23.33 24.18C23.39 23.74 23.07 22.95 21.98 22.56C20.29 21.97 18.98 21.46 18.38 21.18C16.29 20.2 15.1 18.23 15.26 16.04C15.42 13.82 16.9 11.91 18.94 11.25C19.14 10.16 20.1 9.33 21.25 9.33C22.35 9.33 23.28 10.09 23.52 11.12C24.91 11.52 25.98 12.31 26.62 13.22C27.37 14.28 27.11 15.75 26.05 16.49C24.99 17.23 23.53 16.98 22.79 15.92C22.64 15.71 21.79 15.29 20.37 15.71C20.19 15.77 19.96 16.07 19.93 16.39C19.93 16.51 19.91 16.72 20.38 16.94C20.65 17.07 21.63 17.47 23.54 18.14C26.52 19.2 28.34 21.92 27.98 24.77C27.68 27.14 25.95 28.9 23.45 29.48C23.13 30.38 22.26 31.03 21.25 31.03C20.17 31.03 19.27 30.31 18.99 29.32C17.65 28.94 16.32 28.22 15.37 27.04C14.56 26.03 14.72 24.56 15.73 23.74C16.73 22.93 18.21 23.09 19.02 24.1C19.58 24.79 20.94 25.07 21.95 24.98C22.34 24.95 23.25 24.8 23.33 24.18ZM52.22 38.43L52.22 48.38C52.22 52.82 49.42 56.82 45.25 58.34L41.34 59.76C41.08 59.85 40.81 59.9 40.54 59.9C40.27 59.9 40 59.85 39.74 59.76L37.69 59.01C36.4 59.66 34.97 60 33.51 60L9.37 60C4.2 60 0 55.79 0 50.62L0 9.37C0 4.2 4.2 0 9.37 0L33.51 0C38.68 0 42.88 4.2 42.88 9.37L42.88 23.47C42.88 24.77 41.83 25.81 40.54 25.81C39.25 25.81 38.2 24.77 38.2 23.47L38.2 9.37C38.2 6.79 36.09 4.68 33.51 4.68L9.37 4.68C6.79 4.68 4.68 6.79 4.68 9.37L4.68 50.62C4.68 53.2 6.79 55.31 9.37 55.31L31.44 55.31C30.22 53.89 29.38 52.16 29.03 50.29L11.91 50.29C10.62 50.29 9.57 49.24 9.57 47.95C9.57 46.65 10.62 45.6 11.91 45.6L28.86 45.6L28.86 40.78L11.91 40.78C10.62 40.78 9.57 39.73 9.57 38.43C9.57 37.14 10.62 36.09 11.91 36.09L31.2 36.09C31.21 36.09 31.44 36.1 31.51 36.11C33.24 36.31 34.96 35.75 36.24 34.55C38.65 32.28 42.43 32.28 44.84 34.55C46.12 35.75 47.85 36.32 49.6 36.11C50.26 36.02 50.93 36.23 51.43 36.68C51.93 37.12 52.22 37.76 52.22 38.43ZM47.54 40.75C45.35 40.47 43.28 39.51 41.63 37.97C41.02 37.39 40.06 37.39 39.45 37.97C37.8 39.51 35.73 40.47 33.54 40.75L33.54 48.38C33.54 50.86 35.11 53.09 37.43 53.93L40.54 55.06L43.65 53.93C45.97 53.09 47.54 50.86 47.54 48.38L47.54 40.75Z" fill="url(#paint_linear_1_1639_0)" fill-opacity="1.000000" fill-rule="nonzero"></path></svg>